<svg xmlns="http://www.w3.org/2000/svg" width="100.181" height="30.574" viewBox="0 0 100.181 30.574">
  <g id="Group_2" data-name="Group 2" transform="translate(-3594 -30)">
    <g id="Group_1" data-name="Group 1">
      <path id="Path_3" data-name="Path 3" d="M3601.44,54.765a1.112,1.112,0,0,1-.51-.2l-5.809-5.6a3.307,3.307,0,0,1-.611-.612,2.16,2.16,0,0,1-.357-.509,1.411,1.411,0,0,1-.153-.663v-.815a1.407,1.407,0,0,1,.153-.662c.153-.2.255-.408.357-.51l.611-.611,5.758-5.758a.862.862,0,0,1,.51-.153.655.655,0,0,1,.509.2.906.906,0,0,1,.2.51v1.172c0,.1-.051.153-.051.2a.387.387,0,0,1-.1.2.631.631,0,0,1-.1.153c0,.051-.051.1-.153.2l-.152.153a.611.611,0,0,0-.2.2c-.1.1-.2.153-.2.2l-4.484,4.637c-.1.1-.2.2-.2.306a.369.369,0,0,0,.2.306l4.484,4.433a.706.706,0,0,0,.2.153c.1.1.153.152.2.152l.152.153.153.153c.051.051.051.1.1.153s.051.153.1.2c0,.051.051.153.051.2V54a.653.653,0,0,1-.2.509A.538.538,0,0,1,3601.44,54.765Z" fill="#ee4036"/>
      <path id="Path_4" data-name="Path 4" d="M3607.045,60.574c-.1,0-.2-.153-.2-.408v-.152l4.688-29.4c.1-.407.2-.611.357-.611h2.752c.152,0,.2.153.2.408v.153l-4.688,29.4c-.1.407-.2.611-.356.611Z" fill="#ee4036"/>
      <path id="Path_5" data-name="Path 5" d="M3619.275,57.16a.5.5,0,0,1-.408-.153c-.1-.1-.1-.306-.1-.611V34.229a1.289,1.289,0,0,1,.1-.611.5.5,0,0,1,.408-.153h2.9a.5.5,0,0,1,.408.153c.1.1.1.306.1.611v8.765a.382.382,0,0,0,.051.255c.051.1.1.1.153.1h5.962c.05,0,.1-.051.152-.1.051-.1.1-.153.1-.255V34.229a.884.884,0,0,1,.153-.611.5.5,0,0,1,.408-.153h2.955a.4.4,0,0,1,.357.153c.1.1.1.306.1.611V56.4a1.289,1.289,0,0,1-.1.611.463.463,0,0,1-.357.153h-2.955a.382.382,0,0,1-.255-.051l-.2-.2a1.278,1.278,0,0,1-.1-.509V46.306c0-.255-.051-.356-.2-.356h-6.012c-.153,0-.2.1-.2.356V56.4a.884.884,0,0,1-.153.611.5.5,0,0,1-.408.153Z" fill="#ee4036"/>
      <path id="Path_6" data-name="Path 6" d="M3640.473,57.16a.4.4,0,0,1-.357-.153.884.884,0,0,1-.153-.611V36.522c0-.254-.051-.407-.2-.407h-3.771c-.05,0-.1-.051-.152-.153a1.131,1.131,0,0,1-.051-.459V34.178a1.037,1.037,0,0,1,.1-.56.5.5,0,0,1,.407-.153h11.262a.4.4,0,0,1,.356.153c.1.1.1.306.1.56V35.5a.949.949,0,0,1-.1.51.656.656,0,0,1-.407.1h-3.414c-.153,0-.2.153-.2.407V56.4a1.05,1.05,0,0,1-.153.662.5.5,0,0,1-.408.153h-2.853Z" fill="#ee4036"/>
      <path id="Path_7" data-name="Path 7" d="M3650.919,57.16c-.306,0-.459-.255-.459-.815v-.1l.917-21.912c0-.611.2-.917.51-.917h3.159a.861.861,0,0,1,.51.153.871.871,0,0,1,.306.611l3.363,15.593a.178.178,0,0,0,.051.1h.1c.051,0,.051-.051.051-.1l3.363-15.491c.1-.509.356-.815.764-.815h3.21c.306,0,.459.357.459.917l.917,21.912v.1c0,.509-.153.815-.509.815h-2.191c-.306,0-.51-.306-.51-.866l-.612-17.02c0-.051,0-.1-.05-.1s-.051,0-.1.051L3660.55,56.4c-.1.509-.357.815-.663.815h-1.274c-.3,0-.56-.255-.662-.815l-3.516-17.02c0-.051-.051-.1-.1-.051v.1l-.663,16.867c0,.611-.152.866-.458.866Z" fill="#ee4036"/>
      <path id="Path_8" data-name="Path 8" d="M3672.932,57.16a.394.394,0,0,1-.356-.153c-.1-.1-.1-.306-.1-.611V34.229a1.29,1.29,0,0,1,.1-.611.46.46,0,0,1,.356-.153h2.956a.4.4,0,0,1,.356.153c.1.1.1.306.1.611V54.205c0,.254.1.356.255.356h5.2a.591.591,0,0,1,.356.1c.1.1.1.255.1.51V56.5a1.362,1.362,0,0,1-.1.56.428.428,0,0,1-.356.1Z" fill="#ee4036"/>
      <path id="Path_9" data-name="Path 9" d="M3686.843,54.765a.5.5,0,0,1-.458-.2.906.906,0,0,1-.2-.509V52.931a.307.307,0,0,1,.051-.2c0-.051.051-.1.051-.153a.187.187,0,0,0,.051-.153c0-.051.051-.1.1-.153s.1-.1.1-.153.051-.051.1-.153l.152-.152q.077,0,.153-.153.153-.077.153-.153l4.484-4.586a.441.441,0,0,0,.153-.306.369.369,0,0,0-.2-.306l-4.433-4.433a1.382,1.382,0,0,0-.255-.2c-.1-.1-.2-.153-.2-.2l-.153-.153c-.1-.1-.153-.152-.153-.2s-.051-.1-.1-.2-.051-.153-.1-.255V39.274a.7.7,0,0,1,.662-.713.824.824,0,0,1,.51.2l5.809,5.656.612.611a1.78,1.78,0,0,1,.305.459,1.572,1.572,0,0,1,.153.662v1.07c0,.051-.051.153-.051.2a.387.387,0,0,0-.051.2c0,.051-.051.1-.1.2a.631.631,0,0,1-.1.153.858.858,0,0,1-.152.2l-.153.152-.2.2c-.1.1-.2.153-.2.2L3687.4,54.51A.871.871,0,0,1,3686.843,54.765Z" fill="#ee4036"/>
    </g>
  </g>
</svg>
